<svg width="106" height="40" viewBox="0 0 106 40" fill="none" xmlns="http://www.w3.org/2000/svg">
<path d="M5.99938 7.21773C6.91469 6.30242 8.39867 6.30242 9.31391 7.21773L16.8535 14.818V21.3545L5.99938 10.5323C5.08406 9.61703 5.08406 8.13305 5.99938 7.21773Z" fill="#F4717A"/>
<path d="M13.8326 1.29528C15.0829 0.960281 16.368 1.70223 16.703 2.95255L18.5879 10.0179L16.2295 19.3033L12.1752 4.16575C11.8403 2.91544 12.5823 1.63028 13.8326 1.29528Z" fill="#F99295"/>
<path d="M27.1929 25.8594L23.398 40H10.4552L20.7082 1.73773C21.0432 0.487417 22.3283 -0.254614 23.5786 0.0804642C24.8289 0.415464 25.5709 1.70062 25.2359 2.95093L21.5371 16.8499L21.5374 16.8505C22.3938 13.9333 25.0945 11.7969 28.2851 11.7969C30.7869 11.7969 33.12 13.1431 34.3739 15.3102C35.0222 16.4305 34.6394 17.8643 33.5191 18.5126C32.3988 19.1609 30.965 18.7781 30.3167 17.6577C29.8979 16.934 29.1195 16.4844 28.2852 16.4844C26.9929 16.4844 25.9414 17.5358 25.9414 18.8281C25.9414 20.1205 26.9929 21.1719 28.2852 21.1719C29.1195 21.1719 29.8979 20.7223 30.3167 19.9985C30.965 18.8781 32.3989 18.4954 33.5191 19.1437C34.6395 19.7919 35.0222 21.2257 34.3739 22.3461C33.12 24.5132 30.7869 25.8594 28.2851 25.8594H27.1929Z" fill="#F9C0C0"/>
<path d="M20.7081 1.73773C21.0431 0.487417 22.3283 -0.254614 23.5786 0.0804642C24.8289 0.415464 25.5708 1.70062 25.2358 2.95093L15.331 40H10.4552L20.7081 1.73773Z" fill="#FCACAB"/>
<path d="M52.4043 6.2749C52.4043 5.94971 52.5933 5.65967 53.1338 5.1543L54.4785 3.88867C54.9355 3.45801 55.1377 3.17676 55.1377 2.88672C55.1377 2.56152 54.9004 2.3418 54.5576 2.3418C54.2939 2.3418 54.105 2.44727 53.8721 2.7373C53.604 3.07129 53.4106 3.18555 53.1162 3.18555C52.6943 3.18555 52.3955 2.9043 52.3955 2.51318C52.3955 1.65625 53.4282 0.900391 54.6543 0.900391C55.9331 0.900391 56.8867 1.66943 56.8867 2.70215C56.8867 3.34814 56.5439 3.96338 55.8452 4.58301L54.8081 5.50586V5.57617H56.2803C56.79 5.57617 57.1064 5.84863 57.1064 6.29248C57.1064 6.73633 56.7988 7 56.2803 7H53.2173C52.7339 7 52.4043 6.70557 52.4043 6.2749ZM59.4443 6.09473C59.4443 6.69678 59.1367 7.04395 58.605 7.04395C58.0688 7.04395 57.7524 6.68799 57.7524 6.09473V2.00781C57.7524 1.31348 58.0513 0.95752 58.6313 0.95752C59.0049 0.95752 59.2202 1.10693 59.5762 1.6123L61.1802 3.90186H61.2505V1.90674C61.2505 1.30469 61.5581 0.95752 62.0854 0.95752C62.6216 0.95752 62.9424 1.30908 62.9424 1.90674V6.05957C62.9424 6.70117 62.6567 7.04395 62.1162 7.04395C61.7295 7.04395 61.4878 6.88574 61.1318 6.37158L59.5146 4.04688H59.4443V6.09473ZM63.9619 6.06836V1.93311C63.9619 1.35303 64.3135 1.00146 64.8848 1.00146H66.5591C68.3433 1.00146 69.3145 2.05615 69.3145 3.99854C69.3145 5.94531 68.3433 7 66.5591 7H64.8848C64.3135 7 63.9619 6.64844 63.9619 6.06836ZM65.8032 5.57617H66.2251C67.0732 5.57617 67.4292 5.11035 67.4292 3.99854C67.4292 2.88672 67.0732 2.4209 66.2251 2.4209H65.8032V5.57617ZM57.0098 15.0439C56.4165 15.0439 56.0869 14.6924 56.0869 14.0552V12.7104H54.3511V14.0552C54.3511 14.688 54.0215 15.0439 53.4282 15.0439C52.835 15.0439 52.5054 14.6924 52.5054 14.0552V9.94629C52.5054 9.30908 52.835 8.95752 53.4282 8.95752C54.0215 8.95752 54.3511 9.31348 54.3511 9.94629V11.2866H56.0869V9.94629C56.0869 9.30908 56.4165 8.95752 57.0098 8.95752C57.603 8.95752 57.9326 9.31348 57.9326 9.94629V14.0552C57.9326 14.688 57.603 15.0439 57.0098 15.0439ZM59.4487 15.0439C58.9565 15.0439 58.6094 14.7319 58.6094 14.2925C58.6094 14.1167 58.6577 13.9014 58.7939 13.4971L59.8486 10.2759C60.1606 9.32666 60.6089 8.95752 61.4438 8.95752C62.2788 8.95752 62.7183 9.32227 63.0303 10.2759L64.0806 13.4971C64.186 13.8267 64.2344 14.0552 64.2344 14.2441C64.2344 14.7275 63.8872 15.0439 63.3599 15.0439C62.8721 15.0439 62.5864 14.7715 62.4106 14.1387L62.3359 13.8662H60.4507L60.376 14.1387C60.1958 14.7891 59.9365 15.0439 59.4487 15.0439ZM60.8022 12.5698H61.9932L61.4526 10.5264H61.356L60.8022 12.5698ZM66.5986 14.0947C66.5986 14.6968 66.291 15.0439 65.7593 15.0439C65.2231 15.0439 64.9067 14.688 64.9067 14.0947V10.0078C64.9067 9.31348 65.2056 8.95752 65.7856 8.95752C66.1592 8.95752 66.3745 9.10693 66.7305 9.6123L68.3345 11.9019H68.4048V9.90674C68.4048 9.30469 68.7124 8.95752 69.2397 8.95752C69.7759 8.95752 70.0967 9.30908 70.0967 9.90674V14.0596C70.0967 14.7012 69.811 15.0439 69.2705 15.0439C68.8838 15.0439 68.6421 14.8857 68.2861 14.3716L66.6689 12.0469H66.5986V14.0947ZM71.1162 14.0684V9.93311C71.1162 9.35303 71.4678 9.00146 72.0391 9.00146H73.7134C75.4976 9.00146 76.4688 10.0562 76.4688 11.9985C76.4688 13.9453 75.4976 15 73.7134 15H72.0391C71.4678 15 71.1162 14.6484 71.1162 14.0684ZM72.9575 13.5762H73.3794C74.2275 13.5762 74.5835 13.1104 74.5835 11.9985C74.5835 10.8867 74.2275 10.4209 73.3794 10.4209H72.9575V13.5762ZM53.3228 23.0439C52.8042 23.0439 52.5229 22.71 52.5229 22.0947V18.1484C52.5229 17.4146 52.9536 16.9575 53.6479 16.9575C54.2456 16.9575 54.6587 17.2651 54.9312 18.0342L55.7354 20.293H55.7969L56.5923 18.0254C56.8647 17.2476 57.2559 16.9575 57.8843 16.9575C58.5918 16.9575 58.9961 17.3926 58.9961 18.1484V22.0947C58.9961 22.6924 58.6841 23.0439 58.1523 23.0439C57.6338 23.0439 57.3525 22.71 57.3525 22.0947V19.6558H57.3306L56.522 21.8618C56.3374 22.3672 56.0957 22.521 55.7661 22.521C55.4321 22.521 55.1816 22.3496 55.0015 21.8618L54.1885 19.6558H54.1665V22.0947C54.1665 22.6924 53.8545 23.0439 53.3228 23.0439ZM60.4946 23.0439C60.0024 23.0439 59.6553 22.7319 59.6553 22.2925C59.6553 22.1167 59.7036 21.9014 59.8398 21.4971L60.8945 18.2759C61.2065 17.3267 61.6548 16.9575 62.4897 16.9575C63.3247 16.9575 63.7642 17.3223 64.0762 18.2759L65.1265 21.4971C65.2319 21.8267 65.2803 22.0552 65.2803 22.2441C65.2803 22.7275 64.9331 23.0439 64.4058 23.0439C63.918 23.0439 63.6323 22.7715 63.4565 22.1387L63.3818 21.8662H61.4966L61.4219 22.1387C61.2417 22.7891 60.9824 23.0439 60.4946 23.0439ZM61.8481 20.5698H63.0391L62.4985 18.5264H62.4019L61.8481 20.5698ZM67.7764 22.0552C67.7764 22.6924 67.4556 23.0439 66.8667 23.0439C66.269 23.0439 65.9307 22.688 65.9307 22.0552V18.2715C65.9307 17.4233 66.3174 17.0015 67.0996 17.0015H68.7695C70.2065 17.0015 71.0811 17.7178 71.0811 18.8999C71.0811 19.6382 70.7427 20.2139 70.1143 20.5479L70.7603 21.6245C70.8613 21.7915 70.9097 21.9849 70.9097 22.1694C70.9097 22.688 70.5361 23.0439 69.9912 23.0439C69.499 23.0439 69.2441 22.8506 68.9453 22.2705L68.2949 21.0137H67.7764V22.0552ZM67.7764 19.7832H68.5278C68.9673 19.7832 69.2661 19.5283 69.2661 19.0845C69.2661 18.6538 68.9761 18.4253 68.5103 18.4253H67.7764V19.7832ZM76.2227 23.0483C75.8843 23.0483 75.6118 22.8813 75.3394 22.5122L74.1001 20.8423L73.6606 21.2773V22.0552C73.6606 22.6968 73.3442 23.0439 72.7642 23.0439C72.1621 23.0439 71.8149 22.6836 71.8149 22.0552V17.9463C71.8149 17.3091 72.1445 16.9575 72.7378 16.9575C73.3311 16.9575 73.6606 17.3135 73.6606 17.9463V19.2207H73.7661L75.5063 17.3003C75.7217 17.063 75.9326 16.9575 76.1831 16.9575C76.6401 16.9575 76.9917 17.3091 76.9917 17.7617C76.9917 17.9814 76.9038 18.1616 76.6973 18.3813L75.4668 19.6997L76.7544 21.4004C77.0137 21.7476 77.0928 21.9365 77.0928 22.187C77.0928 22.6924 76.7368 23.0483 76.2227 23.0483ZM77.8442 22.0684V17.9375C77.8442 17.3574 78.1958 17.0015 78.7671 17.0015H81.584C81.9751 17.0015 82.2563 17.3003 82.2563 17.7134C82.2563 18.1265 81.9751 18.4209 81.584 18.4209H79.668V19.3657H81.5093C81.8652 19.3657 82.1069 19.6294 82.1069 20.0117C82.1069 20.394 81.8652 20.6489 81.5093 20.6489H79.668V21.5806H81.5576C81.9751 21.5806 82.2563 21.8662 82.2563 22.2925C82.2563 22.7188 81.9751 23 81.5532 23H78.7671C78.1958 23 77.8442 22.6484 77.8442 22.0684ZM84.9766 23.0439C84.4009 23.0439 84.0537 22.6836 84.0537 22.0859V18.478H83.1089C82.7178 18.478 82.4102 18.1528 82.4102 17.7397C82.4102 17.3267 82.7178 17.0015 83.1089 17.0015H86.8574C87.2485 17.0015 87.543 17.3223 87.543 17.7397C87.543 18.1572 87.2485 18.478 86.8574 18.478H85.8994V22.0859C85.8994 22.6792 85.5479 23.0439 84.9766 23.0439Z" fill="white"/>
<path opacity="0.6" d="M52.8447 38.3848V32.96C52.8447 32.5205 53.0352 32.3398 53.5137 32.3398H55.2227C56.3652 32.3398 57.0781 32.9697 57.0781 33.9756C57.0781 34.7227 56.6826 35.2695 56.0039 35.4697V35.499C56.917 35.6211 57.459 36.2314 57.459 37.1494C57.459 38.3066 56.5996 39 55.1689 39H53.5137C53.0352 39 52.8447 38.8242 52.8447 38.3848ZM53.5283 35.2646H54.7246C55.8428 35.2646 56.3848 34.8789 56.3848 34.0928C56.3848 33.375 55.9209 32.9648 55.125 32.9648H53.5283V35.2646ZM53.5283 38.375H54.8564C56.1846 38.375 56.7607 38.0039 56.7607 37.1689C56.7607 36.3584 56.1992 35.8848 55.2471 35.8848H53.5283V38.375ZM58.5332 39.0635C58.3379 39.0635 58.2109 38.9512 58.2109 38.7656C58.2109 38.6875 58.2256 38.6094 58.2549 38.5264L60.3545 32.6768C60.4521 32.418 60.584 32.291 60.8281 32.291C61.0674 32.291 61.2041 32.418 61.3018 32.6768L63.3965 38.5264C63.4258 38.6094 63.4453 38.6875 63.4453 38.7656C63.4453 38.9463 63.3135 39.0635 63.1182 39.0635C62.9326 39.0635 62.8252 38.9756 62.7471 38.7461L62.1172 36.9004H59.5342L58.9043 38.7461C58.8311 38.9756 58.7188 39.0635 58.5332 39.0635ZM59.7295 36.3389H61.9219L60.8428 33.1797H60.8135L59.7295 36.3389ZM64.2217 36.2314V35.1133C64.2217 33.2773 65.1592 32.1982 66.7705 32.1982C67.5518 32.1982 68.1719 32.4424 68.626 32.916C68.958 33.2529 69.168 33.6924 69.168 33.9805C69.168 34.1855 69.0459 34.3027 68.8652 34.3027C68.7041 34.3027 68.6016 34.2295 68.4941 34C68.1572 33.2285 67.5713 32.8184 66.79 32.8184C65.5889 32.8184 64.9053 33.6533 64.9053 35.1084V36.2363C64.9053 37.6963 65.5938 38.5215 66.8047 38.5215C67.6006 38.5215 68.2061 38.126 68.5234 37.3594C68.626 37.1445 68.7139 37.0664 68.8701 37.0664C69.0703 37.0664 69.1826 37.1885 69.1826 37.3789C69.1826 37.6865 68.9678 38.1162 68.6357 38.4531C68.1865 38.9023 67.5566 39.1465 66.7803 39.1465C65.1592 39.1465 64.2217 38.0771 64.2217 36.2314ZM74.71 39.0244C74.5732 39.0244 74.4561 38.9414 74.3193 38.7461L72.127 35.6602L71.2432 36.5781V38.6729C71.2432 38.9023 71.1064 39.0488 70.8965 39.0488C70.6865 39.0488 70.5596 38.9023 70.5596 38.6729V32.667C70.5596 32.4375 70.6865 32.291 70.8965 32.291C71.1064 32.291 71.2432 32.4375 71.2432 32.667V35.6797H71.2676L74.2217 32.54C74.3779 32.3691 74.4658 32.3154 74.5781 32.3154C74.7539 32.3154 74.8857 32.4473 74.8857 32.6182C74.8857 32.7158 74.8516 32.7793 74.6855 32.9551L72.6348 35.1865L74.8613 38.2773C75.0322 38.5068 75.0664 38.5801 75.0664 38.6826C75.0664 38.8828 74.9199 39.0244 74.71 39.0244ZM75.9697 36.2217V35.1719C75.9697 33.3359 76.9756 32.1982 78.582 32.1982C80.1982 32.1982 81.1943 33.3359 81.1943 35.1768V36.2217C81.1943 38.0381 80.1982 39.1465 78.582 39.1465C76.9463 39.1465 75.9697 38.0381 75.9697 36.2217ZM76.6533 35.167V36.2314C76.6533 37.6523 77.3955 38.5215 78.582 38.5215C79.7686 38.5215 80.5107 37.6523 80.5107 36.2314V35.167C80.5107 33.7266 79.7637 32.8184 78.582 32.8184C77.3955 32.8184 76.6533 33.7266 76.6533 35.167ZM82.957 39.0488C82.7471 39.0488 82.6201 38.9023 82.6201 38.6729V32.96C82.6201 32.5205 82.8105 32.3398 83.2891 32.3398H86.1455C86.3701 32.3398 86.5117 32.4619 86.5117 32.6572C86.5117 32.8477 86.3701 32.9648 86.1455 32.9648H83.3037V35.4014H85.8867C86.1113 35.4014 86.2529 35.5234 86.2529 35.7188C86.2529 35.9092 86.1113 36.0264 85.8867 36.0264H83.3037V38.6729C83.3037 38.9023 83.167 39.0488 82.957 39.0488ZM87.9766 39.0488C87.7666 39.0488 87.6396 38.9023 87.6396 38.6729V32.96C87.6396 32.5205 87.8301 32.3398 88.3086 32.3398H91.165C91.3896 32.3398 91.5312 32.4619 91.5312 32.6572C91.5312 32.8477 91.3896 32.9648 91.165 32.9648H88.3232V35.4014H90.9062C91.1309 35.4014 91.2725 35.5234 91.2725 35.7188C91.2725 35.9092 91.1309 36.0264 90.9062 36.0264H88.3232V38.6729C88.3232 38.9023 88.1865 39.0488 87.9766 39.0488ZM93.0156 39.0488C92.8057 39.0488 92.6787 38.9023 92.6787 38.6729V32.667C92.6787 32.4375 92.8057 32.291 93.0156 32.291C93.2256 32.291 93.3574 32.4375 93.3574 32.667V38.6729C93.3574 38.9023 93.2256 39.0488 93.0156 39.0488ZM94.8076 36.2314V35.1133C94.8076 33.2773 95.7451 32.1982 97.3564 32.1982C98.1377 32.1982 98.7578 32.4424 99.2119 32.916C99.5439 33.2529 99.7539 33.6924 99.7539 33.9805C99.7539 34.1855 99.6318 34.3027 99.4512 34.3027C99.29 34.3027 99.1875 34.2295 99.0801 34C98.7432 33.2285 98.1572 32.8184 97.376 32.8184C96.1748 32.8184 95.4912 33.6533 95.4912 35.1084V36.2363C95.4912 37.6963 96.1797 38.5215 97.3906 38.5215C98.1865 38.5215 98.792 38.126 99.1094 37.3594C99.2119 37.1445 99.2998 37.0664 99.4561 37.0664C99.6562 37.0664 99.7686 37.1885 99.7686 37.3789C99.7686 37.6865 99.5537 38.1162 99.2217 38.4531C98.7725 38.9023 98.1426 39.1465 97.3662 39.1465C95.7451 39.1465 94.8076 38.0771 94.8076 36.2314ZM101.146 38.3848V32.96C101.146 32.5205 101.336 32.3398 101.814 32.3398H104.734C104.959 32.3398 105.101 32.4619 105.101 32.6572C105.101 32.8477 104.959 32.9648 104.734 32.9648H101.829V35.2842H104.559C104.783 35.2842 104.925 35.4062 104.925 35.5967C104.925 35.7871 104.783 35.9043 104.559 35.9043H101.829V38.375H104.729C104.954 38.375 105.096 38.4971 105.096 38.6924C105.096 38.8828 104.954 39 104.729 39H101.814C101.336 39 101.146 38.8242 101.146 38.3848Z" fill="white"/>
</svg>
